<?xml version="1.0" encoding="UTF-8"?>
<svg width="24px" height="24px" viewBox="0 0 24 24" version="1.1" xmlns="http://www.w3.org/2000/svg" xmlns:xlink="http://www.w3.org/1999/xlink">
    <title>图表/应用系统备份 2</title>
    <g id="图表/应用系统备份-2" stroke="none" stroke-width="1" fill="none" fill-rule="evenodd">
        <path d="M9.45470027,13.5671454 C10.0545693,13.5671454 10.5408592,14.0534353 10.5408592,14.6533043 L10.5408592,19.9138411 C10.5408592,20.5137101 10.0545693,21 9.45470027,21 L4.08615894,21 C3.48628992,21 3,20.5137101 3,19.9138411 L3,14.6533043 C3,14.0534353 3.48628992,13.5671454 4.08615894,13.5671454 L9.45470027,13.5671454 Z M18.8807743,13.5671454 C19.4806433,13.5671454 19.9669332,14.0534353 19.9669332,14.6533043 L19.9669332,19.9138411 C19.9669332,20.5137101 19.4806433,21 18.8807743,21 L13.512233,21 C12.9123639,21 12.426074,20.5137101 12.426074,19.9138411 L12.426074,14.6533043 C12.426074,14.0534353 12.9123639,13.5671454 13.512233,13.5671454 L18.8807743,13.5671454 Z M17.5255869,2.84549398 L21.117111,6.38557817 C21.5656919,6.82773419 21.6004584,7.53115717 21.2179332,8.01374553 L21.117111,8.12606565 L21.117111,8.12606565 L17.5255869,11.6661498 C17.0498599,12.1350633 16.2857548,12.1350633 15.8100277,11.6661498 L12.2185036,8.12606565 C11.7699228,7.68390963 11.7351562,6.98048664 12.1176814,6.49789828 L12.2185036,6.38557817 L12.2185036,6.38557817 L15.8100277,2.84549398 C16.2857548,2.37658056 17.0498599,2.37658056 17.5255869,2.84549398 Z M9.45470027,4.2760771 C10.0545693,4.2760771 10.5408592,4.76236702 10.5408592,5.36223604 L10.5408592,10.6227728 C10.5408592,11.2226418 10.0545693,11.7089317 9.45470027,11.7089317 L4.08615894,11.7089317 C3.48628992,11.7089317 3,11.2226418 3,10.6227728 L3,5.36223604 C3,4.76236702 3.48628992,4.2760771 4.08615894,4.2760771 L9.45470027,4.2760771 Z" id="形状" fill="#8297af" fill-rule="nonzero"></path>
    </g>
</svg>