<?xml version="1.0" encoding="UTF-8"?>
<svg width="24px" height="24px" viewBox="0 0 24 24" version="1.1" xmlns="http://www.w3.org/2000/svg" xmlns:xlink="http://www.w3.org/1999/xlink">
    <title>图表/数据库备份</title>
    <g id="图表/数据库备份" stroke="none" stroke-width="1" fill="none" fill-rule="evenodd">
        <path d="M21,9.5 L21,12.5 C21,14.9853 16.9706,17 12,17 C7.02944,17 3,14.9853 3,12.5 L3,9.5 C3,11.9853 7.02944,14 12,14 C16.9706,14 21,11.9853 21,9.5 Z M3,14.5 C3,16.9853 7.02944,19 12,19 C16.9706,19 21,16.9853 21,14.5 L21,17.5 C21,19.9853 16.9706,22 12,22 C7.02944,22 3,19.9853 3,17.5 L3,14.5 Z M12,12 C7.02944,12 3,9.98528 3,7.5 C3,5.01472 7.02944,3 12,3 C16.9706,3 21,5.01472 21,7.5 C21,9.98528 16.9706,12 12,12 Z" id="形状" fill="#ef3f3d" fill-rule="nonzero"></path>
    </g>
</svg>