<?xml version="1.0" encoding="UTF-8"?>
<svg width="24px" height="24px" viewBox="0 0 24 24" version="1.1" xmlns="http://www.w3.org/2000/svg" xmlns:xlink="http://www.w3.org/1999/xlink">
    <title>图表/网络资产备份 2</title>
    <g id="图表/网络资产备份-2" stroke="none" stroke-width="1" fill="none" fill-rule="evenodd">
        <path d="M14.86272,13.28 C14.7440595,16.2054586 13.8758293,19.0513791 12.34128,21.54488 C12.22608,21.5492 12.11592,21.56072 12,21.56072 C11.88408,21.56072 11.77248,21.54992 11.658,21.54488 C10.1237302,19.0512081 9.25529426,16.2054254 9.13584,13.28 L9.13584,13.28 Z M21.35512,13.28 C21.04336,17.1896 18.22456,20.38928 14.5,21.29504 C15.8194147,18.8219379 16.5590302,16.0811255 16.66288,13.28 L16.66288,13.28 Z M7.44224001,13.28 C7.54608976,16.0811255 8.28570533,18.8219379 9.60512,21.29504 C5.87984,20.38928 3.06248001,17.1896 2.75,13.28 L2.75,13.28 Z M9.60512,3.26495999 C8.28554896,5.73803932 7.54569227,8.47883287 7.44152,11.28 L7.44152,11.28 L2.75,11.28 C3.06248001,7.37039999 5.87984,4.17072 9.60512,3.26495999 Z M14.5,3.26495999 C18.22456,4.17072 21.04192,7.36968 21.35512,11.28 L21.35512,11.28 L16.66288,11.28 C16.5589551,8.47888587 15.819344,5.73809 14.5,3.26495999 Z M12,3 C12.1152,3 12.2268,3.0108 12.342,3.01512 C13.875721,5.50899456 14.7438836,8.35469371 14.86344,11.28 L14.86344,11.28 L9.13584,11.28 C9.2551983,8.35455825 10.1236415,5.50875186 11.658,3.01512 C11.7732,3.0108 11.8848,3 12,3 Z" id="形状结合" fill="#8297af" fill-rule="nonzero"></path>
    </g>
</svg>