<?xml version="1.0" encoding="UTF-8"?>
<svg width="24px" height="24px" viewBox="0 0 24 24" version="1.1" xmlns="http://www.w3.org/2000/svg" xmlns:xlink="http://www.w3.org/1999/xlink">
    <title>1.3 Icon图标/线风格/操作类-全屏</title>
    <g id="1.3-Icon图标/线风格/操作类-全屏" stroke="none" stroke-width="1" fill="none" fill-rule="evenodd">
        <rect id="矩形" fill-opacity="0" fill="#EDF1F6" opacity="0" x="0" y="0" width="24" height="24"></rect>
        <path d="M10.1428635,13.7322674 L10.2343998,13.8126693 C10.5838376,14.1640953 10.6092296,14.7101979 10.314696,15.0868125 L10.2343998,15.1772244 L5.45550706,19.9288003 L7.53861416,22 L3,22 C2.48716416,22 2.06449284,21.6139598 2.00672773,21.1166211 L2,21 L2,16.4930454 L4.08310709,18.5642452 L8.86199984,13.8126693 C9.21241131,13.4642609 9.76183477,13.4374602 10.1428635,13.7322674 Z M21,2 C21.5128358,2 21.9355072,2.38604019 21.9932723,2.88337887 L22,3 L22,7.53132161 L19.9168929,5.46012189 L15.1502537,10.1995142 C14.7935849,10.5541442 14.2343503,10.5814235 13.8465175,10.2813519 L13.7533466,10.1995142 C13.3976689,9.84181273 13.3718234,9.28595837 13.6716166,8.90261845 L13.7533466,8.81059202 L18.5199858,4.07119972 L16.4368787,2 L21,2 Z" id="形状结合" fill="#666666" fill-rule="nonzero"></path>
        <path d="M10.1428635,13.7322674 L10.2343998,13.8126693 C10.5838376,14.1640953 10.6092296,14.7101979 10.314696,15.0868125 L10.2343998,15.1772244 L5.45550706,19.9288003 L7.53861416,22 L3,22 C2.48716416,22 2.06449284,21.6139598 2.00672773,21.1166211 L2,21 L2,16.4930454 L4.08310709,18.5642452 L8.86199984,13.8126693 C9.21241131,13.4642609 9.76183477,13.4374602 10.1428635,13.7322674 Z M21,2 C21.5128358,2 21.9355072,2.38604019 21.9932723,2.88337887 L22,3 L22,7.53132161 L19.9168929,5.46012189 L15.1502537,10.1995142 C14.7935849,10.5541442 14.2343503,10.5814235 13.8465175,10.2813519 L13.7533466,10.1995142 C13.3976689,9.84181273 13.3718234,9.28595837 13.6716166,8.90261845 L13.7533466,8.81059202 L18.5199858,4.07119972 L16.4368787,2 L21,2 Z" id="形状结合" fill="#666666" fill-rule="nonzero" transform="translate(12.000000, 12.000000) scale(-1, 1) translate(-12.000000, -12.000000) "></path>
    </g>
</svg>