<?xml version="1.0" encoding="UTF-8"?>
<svg width="24px" height="24px" viewBox="0 0 24 24" version="1.1" xmlns="http://www.w3.org/2000/svg" xmlns:xlink="http://www.w3.org/1999/xlink">
    <title>1.3 Icon图标/线风格/对焦</title>
    <g id="1.3-Icon图标/线风格/对焦" stroke="none" stroke-width="1" fill="none" fill-rule="evenodd">
        <rect id="矩形" fill-opacity="0" fill="#EDF1F6" opacity="0" x="0" y="0" width="24" height="24"></rect>
        <path d="M8,2 C8.55228475,2 9,2.44771525 9,3 C9,3.51283584 8.61395981,3.93550716 8.11662113,3.99327227 L8,4 L4,4 L4,8 C4,8.55228475 3.55228475,9 3,9 C2.48716416,9 2.06449284,8.61395981 2.00672773,8.11662113 L2,8 L2,4 C2,2.94563797 2.81587756,2.08183486 3.85073762,2.00548573 L4,2 L8,2 Z" id="路径" fill="#666666" fill-rule="nonzero"></path>
        <path d="M3,15 C3.51283584,15 3.93550716,15.3860402 3.99327227,15.8833789 L4,16 L4,20 L8,20 C8.55228475,20 9,20.4477153 9,21 C9,21.5128358 8.61395981,21.9355072 8.11662113,21.9932723 L8,22 L4,22 C2.94563523,22 2.08183461,21.1841335 2.00548572,20.1492639 L2,20 L2,16 C2,15.4477153 2.44771525,15 3,15 Z" id="路径" fill="#666666" fill-rule="nonzero"></path>
        <path d="M21,15 C21.5128358,15 21.9355072,15.3860402 21.9932723,15.8833789 L22,16 L22,20 C22,21.0543764 21.1841361,21.9181664 20.1492642,21.9945144 L20,22 L16,22 C15.4477153,22 15,21.5522847 15,21 C15,20.4871642 15.3860402,20.0644928 15.8833789,20.0067277 L16,20 L20,20 L20,16 C20,15.4477153 20.4477153,15 21,15 Z" id="路径" fill="#666666" fill-rule="nonzero"></path>
        <path d="M20,2 C21.0543736,2 21.9181662,2.81587496 21.9945143,3.85073727 L22,4 L22,8 C22,8.55228475 21.5522847,9 21,9 C20.4871642,9 20.0644928,8.61395981 20.0067277,8.11662113 L20,8 L20,4 L16,4 C15.4477153,4 15,3.55228475 15,3 C15,2.48716416 15.3860402,2.06449284 15.8833789,2.00672773 L16,2 L20,2 Z" id="路径" fill="#666666" fill-rule="nonzero"></path>
        <path d="M12,7.5 C9.51471525,7.5 7.5,9.51471525 7.5,12 C7.5,14.4852847 9.51471525,16.5 12,16.5 C14.4852847,16.5 16.5,14.4852847 16.5,12 C16.5,9.51471525 14.4852847,7.5 12,7.5 Z M12,9.5 C13.3807153,9.5 14.5,10.6192847 14.5,12 C14.5,13.3807153 13.3807153,14.5 12,14.5 C10.6192847,14.5 9.5,13.3807153 9.5,12 C9.5,10.6192847 10.6192847,9.5 12,9.5 Z" id="路径" fill="#666666" fill-rule="nonzero"></path>
        <path d="M12,5.5 C12.5128358,5.5 12.9355072,5.88604019 12.9932723,6.38337887 L13,6.5 L13,8.5 C13,9.05228475 12.5522847,9.5 12,9.5 C11.4871642,9.5 11.0644928,9.11395981 11.0067277,8.61662113 L11,8.5 L11,6.5 C11,5.94771525 11.4477153,5.5 12,5.5 Z" id="路径" fill="#666666" fill-rule="nonzero"></path>
        <path d="M12,14.5 C12.5128358,14.5 12.9355072,14.8860402 12.9932723,15.3833789 L13,15.5 L13,17.5 C13,18.0522847 12.5522847,18.5 12,18.5 C11.4871642,18.5 11.0644928,18.1139598 11.0067277,17.6166211 L11,17.5 L11,15.5 C11,14.9477153 11.4477153,14.5 12,14.5 Z" id="路径" fill="#666666" fill-rule="nonzero"></path>
        <path d="M17.5,11 C18.0522847,11 18.5,11.4477153 18.5,12 C18.5,12.5128358 18.1139598,12.9355072 17.6166211,12.9932723 L17.5,13 L15.5,13 C14.9477153,13 14.5,12.5522847 14.5,12 C14.5,11.4871642 14.8860402,11.0644928 15.3833789,11.0067277 L15.5,11 L17.5,11 Z" id="路径" fill="#666666" fill-rule="nonzero"></path>
        <path d="M8.5,11 C9.05228475,11 9.5,11.4477153 9.5,12 C9.5,12.5128358 9.11395981,12.9355072 8.61662113,12.9932723 L8.5,13 L6.5,13 C5.94771525,13 5.5,12.5522847 5.5,12 C5.5,11.4871642 5.88604019,11.0644928 6.38337887,11.0067277 L6.5,11 L8.5,11 Z" id="路径" fill="#666666" fill-rule="nonzero"></path>
        <path d="M12,13 C12.5523,13 13,12.5523 13,12 C13,11.4477 12.5523,11 12,11 C11.4477,11 11,11.4477 11,12 C11,12.5523 11.4477,13 12,13 Z" id="路径" fill="#666666" fill-rule="nonzero"></path>
    </g>
</svg>