<?xml version="1.0" encoding="UTF-8"?>
<svg width="24px" height="24px" viewBox="0 0 24 24" version="1.1" xmlns="http://www.w3.org/2000/svg" xmlns:xlink="http://www.w3.org/1999/xlink">
    <title>1.3 Icon图标/线风格/操作类-新增3</title>
    <g id="1.3-Icon图标/线风格/操作类-新增3" stroke="none" stroke-width="1" fill="none" fill-rule="evenodd">
        <rect id="矩形" fill-opacity="0" fill="#EDF1F6" opacity="0" x="0" y="0" width="24" height="24"></rect>
        <path d="M12,1 C12.6075132,1 13.1,1.49248678 13.1,2.1 L13.099,10.9 L21.9,10.9 C22.5075132,10.9 23,11.3924868 23,12 C23,12.6075132 22.5075132,13.1 21.9,13.1 L13.099,13.1 L13.1,21.9 C13.1,22.5075132 12.6075132,23 12,23 C11.3924868,23 10.9,22.5075132 10.9,21.9 L10.899,13.1 L2.1,13.1 C1.49248678,13.1 1,12.6075132 1,12 C1,11.3924868 1.49248678,10.9 2.1,10.9 L10.899,10.9 L10.9,2.1 C10.9,1.49248678 11.3924868,1 12,1 Z" id="形状结合" fill="#666666"></path>
    </g>
</svg>